<svg width="12" height="14" viewBox="0 0 12 14" fill="none" xmlns="http://www.w3.org/2000/svg">
<path d="M1.33333 13.6667H10.6667C11.0203 13.6667 11.3594 13.5262 11.6095 13.2761C11.8595 13.0261 12 12.687 12 12.3333V6.33334C12.0005 6.2456 11.9837 6.15863 11.9505 6.0774C11.9173 5.99618 11.8685 5.9223 11.8067 5.86L6.47333 0.526671C6.34843 0.402504 6.17946 0.332809 6.00333 0.332809C5.82721 0.332809 5.65824 0.402504 5.53333 0.526671L0.2 5.86C0.137008 5.92175 0.0868946 5.99538 0.0525635 6.07663C0.0182324 6.15788 0.000366167 6.24513 0 6.33334V12.3333C0 12.687 0.140476 13.0261 0.390524 13.2761C0.640573 13.5262 0.979711 13.6667 1.33333 13.6667ZM4.66667 12.3333V9H7.33333V12.3333H4.66667ZM1.33333 6.60667L6 1.94L10.6667 6.60667V12.3333H8.66667V9C8.66667 8.64638 8.52619 8.30724 8.27614 8.0572C8.02609 7.80715 7.68696 7.66667 7.33333 7.66667H4.66667C4.31305 7.66667 3.97391 7.80715 3.72386 8.0572C3.47381 8.30724 3.33333 8.64638 3.33333 9V12.3333H1.33333V6.60667Z" fill="#ADB4D2"/>
</svg>
