<svg width="14" height="14" viewBox="0 0 14 14" fill="none" xmlns="http://www.w3.org/2000/svg">
<path d="M10.1455 1.7846C9.59901 1.22425 8.94675 0.777962 8.22649 0.471636C7.50623 0.165309 6.73232 0.00503774 5.94964 0.000116866C5.16697 -0.00480401 4.3911 0.145724 3.66705 0.442969C2.943 0.740215 2.28517 1.17826 1.73172 1.7317C1.17828 2.28515 0.740223 2.94296 0.442974 3.66701C0.145725 4.39105 -0.00480406 5.16691 0.000116867 5.94958C0.00503779 6.73225 0.165311 7.50615 0.471641 8.2264C0.777971 8.94665 1.22426 9.59891 1.78462 10.1453C2.33107 10.7057 2.98333 11.152 3.70359 11.4583C4.42385 11.7646 5.19776 11.9249 5.98044 11.9298C6.76312 11.9348 7.53898 11.7842 8.26303 11.487C8.98708 11.1897 9.64491 10.7517 10.1984 10.1982C10.7518 9.6448 11.1899 8.98698 11.4871 8.26294C11.7844 7.5389 11.9349 6.76304 11.93 5.98037C11.925 5.1977 11.7648 4.4238 11.4584 3.70355C11.1521 2.9833 10.7058 2.33104 10.1455 1.7846V1.7846ZM5.96736 10.7488C5.02094 10.7494 4.09562 10.4692 3.30845 9.94383C2.52127 9.41841 1.90761 8.67134 1.54509 7.79711C1.18257 6.92288 1.08748 5.96078 1.27185 5.0325C1.45622 4.10422 1.91176 3.25148 2.58085 2.58213C3.24994 1.91279 4.10252 1.45692 5.03073 1.2722C5.95895 1.08747 6.9211 1.18219 7.79548 1.54436C8.66986 1.90654 9.41718 2.5199 9.94291 3.30686C10.4686 4.09383 10.7491 5.01903 10.749 5.96544C10.7475 7.23362 10.243 8.44945 9.34629 9.34619C8.44954 10.2429 7.2337 10.7474 5.96551 10.7488H5.96736Z" fill="#0054A6"/>
<path d="M13.8523 13.0544L10.144 9.34614C10.0926 9.2899 10.0302 9.24469 9.96081 9.2132C9.89139 9.1817 9.8163 9.16459 9.74009 9.1629C9.66387 9.16122 9.5881 9.17497 9.51735 9.20337C9.4466 9.23176 9.38232 9.27419 9.32841 9.32809C9.27451 9.382 9.23208 9.44628 9.20369 9.51702C9.17529 9.58777 9.16154 9.66354 9.16322 9.73976C9.16491 9.81598 9.18199 9.89106 9.21349 9.96048C9.24498 10.0299 9.29023 10.0922 9.34646 10.1437L13.0547 13.8519C13.162 13.9501 13.303 14.0031 13.4484 13.9999C13.5937 13.9967 13.7322 13.9375 13.8351 13.8347C13.9379 13.7319 13.997 13.5934 14.0002 13.448C14.0035 13.3026 13.9505 13.1617 13.8523 13.0544V13.0544Z" fill="#0054A6"/>
</svg>
