<svg width="1366" height="786" viewBox="0 0 1366 786" fill="none" xmlns="http://www.w3.org/2000/svg">
<g clip-path="url(#clip0_341_905)">
<rect width="1366" height="786" fill="#EBEEF5"/>
<path d="M936.349 438.349C936.174 438.536 935.963 438.685 935.729 438.789C935.495 438.893 935.243 438.948 934.987 438.952C934.731 438.957 934.477 438.909 934.239 438.813C934.002 438.717 933.787 438.574 933.606 438.393C933.425 438.212 933.282 437.997 933.186 437.76C933.09 437.522 933.043 437.268 933.047 437.012C933.051 436.756 933.107 436.504 933.211 436.27C933.315 436.036 933.464 435.825 933.651 435.65M938.78 440.775C937.692 441.603 936.367 442.061 935 442.082C930.545 442.09 928 437 928 437C928.791 435.523 929.889 434.233 931.22 433.215L938.78 440.775ZM933.663 432.062C934.102 431.959 934.55 431.908 935 431.909C939.455 431.909 942 437 942 437C941.614 437.723 941.153 438.403 940.625 439.03L933.663 432.062Z" stroke="#ADB4D2" stroke-width="1.8" stroke-linecap="round" stroke-linejoin="round"/>
<path d="M928 430L942 444" stroke="#ADB4D2" stroke-width="1.8" stroke-linecap="round" stroke-linejoin="round"/>
<rect width="1366" height="786" fill="#EBEEF5"/>
<path d="M28 225L1338 611.082V760H28V225Z" fill="#0054A6"/>
<path d="M0 227.304L1366 630.487V786H0V227.304Z" fill="white"/>
</g>
<defs>
<clipPath id="clip0_341_905">
<rect width="1366" height="786" fill="white"/>
</clipPath>
</defs>
</svg>
